<svg width="20" height="20" viewBox="0 0 20 20" fill="none" xmlns="http://www.w3.org/2000/svg">
<path d="M18.1504 4.22779C18.1501 4.22135 18.1494 4.2149 18.1483 4.20849C18.1233 4.17278 18.0926 4.14205 18.0668 4.10705C17.8801 3.85268 17.6824 3.60785 17.4738 3.37252C17.4166 3.30821 17.3595 3.24462 17.3009 3.18174C17.0861 2.95169 16.8608 2.73231 16.625 2.52369C16.5814 2.48509 16.5407 2.44511 16.4971 2.40722C15.916 1.9094 15.2797 1.47977 14.6008 1.12685C14.5736 1.11257 14.545 1.10043 14.5172 1.08611C14.2148 0.93246 13.9048 0.79435 13.5883 0.67239C13.5168 0.64669 13.4518 0.62236 13.3839 0.60093C13.1024 0.49949 12.8166 0.41065 12.5265 0.33441C12.4408 0.31155 12.355 0.28798 12.2679 0.26797C11.9821 0.20153 11.6963 0.15079 11.404 0.10934C11.3154 0.09649 11.2283 0.07932 11.1389 0.06861C10.3862 -0.02287 9.6252 -0.02287 8.8725 0.06861C8.7832 0.07932 8.696 0.09649 8.6074 0.10934C8.3152 0.15079 8.0265 0.20153 7.74354 0.26797C7.65638 0.28798 7.57064 0.31155 7.4849 0.33441C7.19289 0.41061 6.90711 0.49945 6.62749 0.60093C6.55603 0.62521 6.49101 0.64954 6.42314 0.67239C6.10668 0.79435 5.79662 0.93242 5.49427 1.08611C5.46639 1.10039 5.43783 1.11253 5.41066 1.12685C4.72947 1.4794 4.09106 1.90898 3.50791 2.40722C3.46433 2.44507 3.42359 2.48509 3.38001 2.52369C3.14184 2.73327 2.91652 2.95265 2.70409 3.18174C2.64552 3.24462 2.58833 3.30821 2.53118 3.37252C2.32207 3.60735 2.12438 3.85218 1.93816 4.10701C1.91245 4.14201 1.88172 4.17274 1.85669 4.20845C1.85342 4.21469 1.85053 4.22114 1.8481 4.22775C-0.616359 7.68155 -0.616359 12.319 1.8481 15.7728C1.85053 15.7794 1.85338 15.7858 1.85669 15.7921C1.88168 15.8278 1.91241 15.8585 1.93816 15.8935C2.12442 16.1479 2.32207 16.3927 2.53118 16.628C2.58833 16.6923 2.64552 16.7559 2.70409 16.8188C2.9194 17.0489 3.14468 17.2682 3.38001 17.4769C3.42359 17.5155 3.46433 17.5554 3.50791 17.5933C4.08901 18.0912 4.72528 18.5208 5.40422 18.8737C5.43139 18.888 5.45994 18.9001 5.48782 18.9144C5.79018 19.0681 6.10019 19.2062 6.4167 19.3282C6.48816 19.3539 6.55318 19.3782 6.62104 19.3996C6.90255 19.5011 7.18836 19.5899 7.47845 19.6661C7.56419 19.689 7.64993 19.7126 7.7371 19.7326C8.0229 19.799 8.3087 19.8498 8.601 19.8912C8.6895 19.9041 8.7767 19.9212 8.866 19.9319C9.6188 20.0234 10.3797 20.0234 11.1325 19.9319C11.2218 19.9212 11.309 19.9041 11.3976 19.8912C11.6898 19.8498 11.9785 19.799 12.2614 19.7326C12.3486 19.7126 12.4343 19.689 12.5201 19.6661C12.8126 19.5899 13.0984 19.5011 13.3775 19.3996C13.449 19.3753 13.514 19.351 13.5818 19.3282C13.8983 19.2062 14.2084 19.0681 14.5107 18.9144C14.5386 18.9002 14.5671 18.888 14.5943 18.8737C15.2733 18.5207 15.9095 18.0912 16.4906 17.5933C16.5342 17.5554 16.5749 17.5155 16.6185 17.4769C16.8567 17.2677 17.082 17.0484 17.2944 16.8188C17.353 16.7559 17.4102 16.6923 17.4674 16.628C17.6765 16.3927 17.8742 16.1479 18.0604 15.8935C18.0861 15.8585 18.1168 15.8278 18.1418 15.7921C18.1451 15.7858 18.148 15.7794 18.1504 15.7728C20.6149 12.319 20.6149 7.68159 18.1504 4.22779ZM17.3352 5.57968C18.0185 6.70507 18.4311 7.97377 18.5405 9.2858H14.2606C14.2082 8.4345 14.0743 7.59011 13.8605 6.76435C15.0695 6.53794 16.2397 6.13896 17.3352 5.57968ZM11.8206 1.62341C11.8606 1.63271 11.8992 1.64556 11.9392 1.65486C12.195 1.71489 12.4487 1.78347 12.6966 1.86921C12.7345 1.88206 12.7716 1.89709 12.8088 1.91066C13.0546 1.9964 13.2968 2.09143 13.534 2.19647C13.5755 2.21577 13.6162 2.23721 13.6577 2.25651C13.8849 2.36465 14.1068 2.48158 14.3236 2.60734L14.4665 2.69379C14.6722 2.81956 14.8723 2.95412 15.0666 3.09751C15.1167 3.13393 15.1667 3.16897 15.216 3.20895C15.4065 3.35184 15.589 3.50498 15.7633 3.66839C15.809 3.70983 15.8562 3.75057 15.9012 3.79344C16.0841 3.96706 16.2584 4.15068 16.4271 4.34075C16.4485 4.36574 16.4714 4.3886 16.4928 4.41221C15.5253 4.87328 14.5004 5.20251 13.4454 5.39107C12.9567 4.04752 12.3111 2.76635 11.522 1.57418C11.6212 1.59202 11.7227 1.60202 11.8206 1.62341ZM7.17057 9.2858C7.22692 8.5127 7.35855 7.74694 7.56356 6.99939C8.3731 7.09555 9.1877 7.14324 10.0029 7.14227C10.8189 7.14202 11.6342 7.09312 12.4444 6.99579C12.649 7.74455 12.7799 8.5115 12.8352 9.2858H7.17057ZM12.8352 10.7148C12.7789 11.4879 12.6472 12.2537 12.4422 13.0012C11.6327 12.9051 10.8181 12.8574 10.0029 12.8584C9.1869 12.8574 8.3717 12.9051 7.56139 13.0012C7.35696 12.2537 7.22609 11.4879 7.17053 10.7148H12.8352ZM10.0029 1.89211C10.816 3.04455 11.4847 4.29235 11.9942 5.60756C11.3328 5.67781 10.6681 5.71311 10.0029 5.71331C9.3384 5.71252 8.6744 5.67702 8.0137 5.60685C8.5238 4.29252 9.1917 3.04513 10.0029 1.89211ZM3.57946 4.33999C3.74738 4.14992 3.92242 3.9663 4.10533 3.79268C4.15034 3.74981 4.19752 3.70908 4.24324 3.66763C4.41949 3.50712 4.60194 3.35397 4.79055 3.2082C4.83987 3.17031 4.88985 3.13673 4.93988 3.09675C5.13422 2.95386 5.3343 2.81927 5.54007 2.69304L5.68296 2.60659C5.8997 2.4799 6.12167 2.36293 6.34887 2.25575C6.39032 2.23645 6.43106 2.21502 6.4725 2.19572C6.70971 2.08854 6.95195 1.99351 7.19774 1.9099C7.23488 1.89634 7.26921 1.88131 7.3099 1.86845C7.55783 1.78556 7.81007 1.71698 8.0673 1.6541C8.1073 1.64481 8.1459 1.63196 8.1866 1.62337C8.2845 1.60194 8.386 1.59193 8.4853 1.57406C7.69586 2.76643 7.05004 4.04786 6.56109 5.39166C5.50612 5.2031 4.48116 4.87387 3.51373 4.4128C3.53517 4.38785 3.55802 4.36499 3.57946 4.33999ZM2.6706 5.57968C3.76585 6.13892 4.93578 6.5379 6.14453 6.76435C5.93105 7.59015 5.79729 8.4345 5.74513 9.2858H1.46524C1.57468 7.97377 1.98731 6.70507 2.6706 5.57968ZM2.6706 14.421C1.98727 13.2956 1.57464 12.0269 1.46524 10.7148H5.74513C5.79754 11.5662 5.93152 12.4106 6.14524 13.2363C4.93628 13.4627 3.7661 13.8617 2.6706 14.421ZM8.1852 18.3772C8.1452 18.3679 8.1066 18.3551 8.0666 18.3458C7.81078 18.2857 7.55712 18.2172 7.30919 18.1314C7.2713 18.1186 7.23417 18.1035 7.19699 18.09C6.9512 18.0042 6.709 17.9092 6.47175 17.8042C6.4303 17.7849 6.38957 17.7634 6.34812 17.7441C6.12092 17.636 5.89894 17.5191 5.6822 17.3933L5.53932 17.3068C5.33355 17.1811 5.13347 17.0465 4.93913 16.9031C4.8891 16.8667 4.83911 16.8317 4.7898 16.7917C4.59927 16.6488 4.41681 16.4957 4.24249 16.3322C4.19677 16.2908 4.14959 16.2501 4.10458 16.2072C3.92167 16.0336 3.74734 15.85 3.57871 15.6599C3.55727 15.6349 3.53441 15.612 3.51298 15.5884C4.48045 15.1274 5.50536 14.7981 6.56034 14.6096C7.04908 15.9531 7.69469 17.2343 8.4838 18.4265C8.3845 18.4087 8.2831 18.3987 8.1852 18.3772ZM10.0029 18.1086C9.1898 16.9561 8.521 15.7083 8.0115 14.3931C9.3348 14.2507 10.6695 14.2507 11.9927 14.3931C11.4827 15.7074 10.8141 16.9555 10.0029 18.1086ZM16.4263 15.6606C16.2584 15.8507 16.0834 16.0343 15.9004 16.208C15.8554 16.2508 15.8083 16.2916 15.7625 16.333C15.5863 16.494 15.4038 16.6472 15.2152 16.7924C15.1659 16.8303 15.1159 16.8675 15.0659 16.9039C14.8716 17.0468 14.6715 17.1814 14.4657 17.3076L14.3228 17.394C14.1065 17.5203 13.8846 17.6372 13.6569 17.7449C13.6155 17.7642 13.5747 17.7856 13.5333 17.8049C13.2961 17.9121 13.0538 18.0071 12.808 18.0907C12.7709 18.1043 12.7366 18.1193 12.6959 18.1322C12.4479 18.2151 12.1957 18.2836 11.9385 18.3465C11.8985 18.3558 11.8599 18.3687 11.8192 18.3773C11.7213 18.3987 11.6198 18.4087 11.5205 18.4266C12.3096 17.2344 12.9552 15.9532 13.4439 14.6097C14.4989 14.7982 15.5239 15.1275 16.4913 15.5885C16.4706 15.6128 16.4478 15.6356 16.4263 15.6606ZM17.3352 14.421C16.2399 13.8618 15.07 13.4628 13.8612 13.2363C14.0747 12.4105 14.2085 11.5662 14.2606 10.7148H18.5405C18.4311 12.0269 18.0185 13.2956 17.3352 14.421Z" fill="black"/>
</svg>
